<?xml version="1.0" standalone="no"?>
<!DOCTYPE svg PUBLIC "-//W3C//DTD SVG 20010904//EN"
 "http://www.w3.org/TR/2001/REC-SVG-20010904/DTD/svg10.dtd">
<svg version="1.0" xmlns="http://www.w3.org/2000/svg"
 width="395.000000pt" height="395.000000pt" viewBox="0 0 395.000000 395.000000"
 preserveAspectRatio="xMidYMid meet">
<metadata>
Created by potrace 1.14, written by Peter Selinger 2001-2017
</metadata>
<g transform="translate(0.000000,395.000000) scale(0.100000,-0.100000)"
fill="#000000" stroke="none">
<path d="M1815 3939 c-360 -35 -650 -137 -937 -330 -551 -371 -870 -969 -868
-1632 0 -89 2 -173 4 -187 2 -14 7 -50 11 -80 11 -95 16 -122 45 -236 138
-535 520 -1008 1015 -1257 130 -65 148 -73 267 -112 196 -65 380 -96 584 -99
545 -8 1044 190 1424 565 114 113 161 170 250 302 179 267 271 511 325 862 4
22 8 105 10 185 17 678 -291 1284 -855 1682 -59 41 -103 68 -225 133 -101 54
-296 126 -430 159 -61 15 -86 19 -212 37 -91 13 -316 17 -408 8z m178 -542
c-2 -4 -3 -11 -3 -16 0 -8 -23 -18 -63 -27 -15 -3 -16 -1 -7 16 6 10 18 23 27
28 18 10 50 9 46 -1z m220 -899 c171 -83 289 -227 330 -404 30 -126 -5 -313
-80 -429 -55 -86 -208 -209 -288 -232 -123 -34 -230 -42 -315 -22 -25 6 -52
12 -61 14 -26 5 -121 55 -159 84 -98 73 -174 181 -212 304 -18 57 -23 95 -23
182 1 108 1 112 42 198 48 101 94 162 172 231 103 90 217 127 386 123 109 -2
111 -3 208 -49z"/>
</g>
</svg>
