<svg width="256" height="427" viewBox="0 0 256 427" fill="none" xmlns="http://www.w3.org/2000/svg">
<g filter="url(#filter0_d_243_1)">
<path d="M68.4372 17.3036C69.7632 21.5163 69.0751 26.0304 66.373 30.8459C64.6476 33.5659 62.1087 37.6981 58.756 43.2424C56.0236 47.733 55.0757 51.4898 55.9125 54.5128C56.0041 54.8194 57.0174 56.0863 58.9522 58.3135C59.889 59.4362 60.6079 60.7243 61.1091 62.1776C61.9036 64.6121 61.9907 66.3562 61.3705 67.4099C60.8116 68.4453 59.2843 69.3694 56.7885 70.1822C55.4395 70.5854 53.2732 69.9304 50.2895 68.217C46.6687 66.1598 44.3085 63.2916 43.2088 59.6124C41.7426 54.7068 42.5543 49.1538 45.644 42.9533C47.9106 38.4684 51.3104 31.741 55.8435 22.7711C55.1654 20.5023 52.8951 19.6111 49.0326 20.0976C47.6103 20.2555 44.8971 20.8995 40.893 22.0295C33.7616 24.0943 28.8487 26.7651 26.1542 30.0419C24.8285 31.6405 23.2459 32.7148 21.4063 33.2646C19.9346 33.7045 18.2797 33.5312 16.4414 32.7447C14.6462 31.8785 13.498 30.7187 12.9968 29.2654C13.452 27.6598 13.8058 26.3851 14.0581 25.4413C17.3825 17.5675 25.2686 11.7703 37.7164 8.0497C44.2776 6.08859 50.2151 5.61646 55.5289 6.63332C62.3136 7.87848 66.6164 11.4352 68.4372 17.3036ZM66.9175 83.2863C67.6386 85.4755 67.2376 87.9333 65.7146 90.6596C64.1916 93.386 62.7341 94.9906 61.342 95.4734C60.5019 95.7914 58.7645 95.3421 56.1298 94.1257C53.1151 92.7556 51.3329 91.1508 50.7831 89.3112C51.287 88.0918 52.0058 86.4742 52.9397 84.4583C54.6227 81.1498 56.2307 79.2664 57.7636 78.8082C59.4806 78.295 61.2765 78.493 63.1514 79.4022C65.0876 80.293 66.3429 81.5877 66.9175 83.2863Z" fill="black"/>
</g>
<g filter="url(#filter1_d_243_1)">
<path d="M242.592 124.585C241.511 128.868 238.557 132.35 233.731 135.032C230.835 136.442 226.506 138.628 220.743 141.59C216.061 143.979 213.283 146.681 212.41 149.693C212.327 150.002 212.525 151.612 213.004 154.523C213.212 155.971 213.148 157.444 212.813 158.945C212.212 161.434 211.371 162.965 210.29 163.536C209.271 164.125 207.486 164.11 204.935 163.493C203.575 163.128 202.075 161.434 200.433 158.41C198.43 154.76 197.925 151.08 198.919 147.37C200.244 142.425 203.848 138.123 209.732 134.465C214.014 131.836 220.438 127.892 229.002 122.634C229.615 120.346 228.15 118.397 224.606 116.785C223.313 116.173 220.665 115.298 216.663 114.159C209.509 112.176 203.925 111.872 199.912 113.249C197.945 113.914 196.034 113.999 194.179 113.502C192.696 113.104 191.378 112.088 190.225 110.454C189.151 108.775 188.782 107.185 189.118 105.685C190.348 104.557 191.318 103.658 192.028 102.986C198.988 98.027 208.743 97.2286 221.293 100.591C227.907 102.364 233.21 105.076 237.2 108.73C242.323 113.349 244.121 118.634 242.592 124.585ZM206.684 179.963C206.15 182.205 204.519 184.087 201.792 185.609C199.065 187.131 196.983 187.732 195.544 187.413C194.662 187.243 193.419 185.949 191.814 183.532C189.966 180.784 189.291 178.482 189.787 176.628C190.856 175.854 192.317 174.854 194.169 173.628C197.338 171.694 199.695 170.934 201.24 171.348C202.971 171.812 204.396 172.923 205.515 174.68C206.697 176.454 207.086 178.215 206.684 179.963Z" fill="black"/>
</g>
<g filter="url(#filter2_d_243_1)">
<path d="M73.5923 243.585C72.5112 247.868 69.5573 251.35 64.7306 254.032C61.8349 255.442 57.5056 257.628 51.7428 260.59C47.0607 262.979 44.283 265.681 43.4095 268.693C43.3267 269.002 43.5247 270.612 44.0036 273.523C44.2121 274.971 44.1485 276.444 43.8128 277.945C43.212 280.434 42.3712 281.965 41.2904 282.536C40.2714 283.125 38.4864 283.11 35.9352 282.493C34.5752 282.128 33.0745 280.434 31.4332 277.41C29.4299 273.76 28.9251 270.08 29.919 266.37C31.2442 261.425 34.8484 257.123 40.7316 253.465C45.014 250.836 51.4376 246.892 60.0024 241.634C60.6153 239.346 59.15 237.397 55.6065 235.785C54.3127 235.173 51.665 234.298 47.6633 233.159C40.5088 231.176 34.9251 230.872 30.9122 232.249C28.9449 232.914 27.034 232.999 25.1794 232.502C23.6957 232.104 22.3777 231.088 21.2253 229.454C20.1513 227.775 19.7822 226.185 20.1179 224.685C21.3478 223.557 22.3177 222.658 23.0276 221.986C29.9884 217.027 39.7434 216.229 52.2927 219.591C58.9074 221.364 64.2099 224.076 68.2004 227.73C73.3234 232.349 75.1207 237.634 73.5923 243.585ZM37.6841 298.963C37.1496 301.205 35.5189 303.087 32.792 304.609C30.0652 306.131 27.9825 306.732 26.5441 306.413C25.6621 306.243 24.4186 304.949 22.8137 302.532C20.9659 299.784 20.2905 297.482 20.7875 295.628C21.8561 294.854 23.3167 293.854 25.1693 292.628C28.3377 290.694 30.6947 289.934 32.2402 290.348C33.9711 290.812 35.3962 291.923 36.5155 293.68C37.6965 295.454 38.0861 297.215 37.6841 298.963Z" fill="black"/>
</g>
<g filter="url(#filter3_d_243_1)">
<path d="M217.922 333.067C219.127 337.316 218.31 341.808 215.471 346.545C213.668 349.214 211.012 353.272 207.502 358.718C204.642 363.128 203.587 366.856 204.337 369.902C204.42 370.211 205.396 371.507 207.267 373.788C208.171 374.937 208.853 376.246 209.312 377.713C210.036 380.169 210.073 381.915 209.423 382.95C208.835 383.969 207.282 384.849 204.764 385.59C203.404 385.955 201.257 385.238 198.324 383.44C194.763 381.28 192.486 378.345 191.492 374.636C190.167 369.69 191.138 364.163 194.404 358.053C196.798 353.635 200.389 347.008 205.177 338.171C204.564 335.884 202.32 334.928 198.446 335.304C197.019 335.421 194.289 335.987 190.254 337.002C183.066 338.862 178.079 341.391 175.292 344.589C173.921 346.149 172.308 347.177 170.453 347.674C168.97 348.072 167.32 347.851 165.505 347.012C163.736 346.095 162.621 344.903 162.162 343.436C162.663 341.844 163.053 340.58 163.332 339.644C166.881 331.869 174.93 326.3 187.479 322.937C194.094 321.165 200.042 320.863 205.325 322.031C212.071 323.47 216.27 327.149 217.922 333.067ZM214.513 398.979C215.171 401.188 214.7 403.633 213.1 406.315C211.499 408.996 209.996 410.559 208.591 411.001C207.742 411.295 206.018 410.796 203.42 409.505C200.445 408.049 198.71 406.394 198.213 404.539C198.752 403.335 199.517 401.739 200.508 399.75C202.285 396.491 203.946 394.655 205.491 394.241C207.222 393.777 209.012 394.026 210.86 394.989C212.77 395.935 213.988 397.265 214.513 398.979Z" fill="black"/>
</g>
<defs>
<filter id="filter0_d_243_1" x="9.20288" y="0.351929" width="88.2203" height="111.049" filterUnits="userSpaceOnUse" color-interpolation-filters="sRGB">
<feFlood flood-opacity="0" result="BackgroundImageFix"/>
<feColorMatrix in="SourceAlpha" type="matrix" values="0 0 0 0 0 0 0 0 0 0 0 0 0 0 0 0 0 0 127 0" result="hardAlpha"/>
<feOffset dx="4" dy="4"/>
<feGaussianBlur stdDeviation="2"/>
<feComposite in2="hardAlpha" operator="out"/>
<feColorMatrix type="matrix" values="0 0 0 0 0 0 0 0 0 0 0 0 0 0 0 0 0 0 0.25 0"/>
<feBlend mode="normal" in2="BackgroundImageFix" result="effect1_dropShadow_243_1"/>
<feBlend mode="normal" in="SourceGraphic" in2="effect1_dropShadow_243_1" result="shape"/>
</filter>
<filter id="filter1_d_243_1" x="169.092" y="92.8887" width="86.1653" height="110.196" filterUnits="userSpaceOnUse" color-interpolation-filters="sRGB">
<feFlood flood-opacity="0" result="BackgroundImageFix"/>
<feColorMatrix in="SourceAlpha" type="matrix" values="0 0 0 0 0 0 0 0 0 0 0 0 0 0 0 0 0 0 127 0" result="hardAlpha"/>
<feOffset dx="4" dy="4"/>
<feGaussianBlur stdDeviation="2"/>
<feComposite in2="hardAlpha" operator="out"/>
<feColorMatrix type="matrix" values="0 0 0 0 0 0 0 0 0 0 0 0 0 0 0 0 0 0 0.25 0"/>
<feBlend mode="normal" in2="BackgroundImageFix" result="effect1_dropShadow_243_1"/>
<feBlend mode="normal" in="SourceGraphic" in2="effect1_dropShadow_243_1" result="shape"/>
</filter>
<filter id="filter2_d_243_1" x="0.0915527" y="211.889" width="86.1653" height="110.196" filterUnits="userSpaceOnUse" color-interpolation-filters="sRGB">
<feFlood flood-opacity="0" result="BackgroundImageFix"/>
<feColorMatrix in="SourceAlpha" type="matrix" values="0 0 0 0 0 0 0 0 0 0 0 0 0 0 0 0 0 0 127 0" result="hardAlpha"/>
<feOffset dx="4" dy="4"/>
<feGaussianBlur stdDeviation="2"/>
<feComposite in2="hardAlpha" operator="out"/>
<feColorMatrix type="matrix" values="0 0 0 0 0 0 0 0 0 0 0 0 0 0 0 0 0 0 0.25 0"/>
<feBlend mode="normal" in2="BackgroundImageFix" result="effect1_dropShadow_243_1"/>
<feBlend mode="normal" in="SourceGraphic" in2="effect1_dropShadow_243_1" result="shape"/>
</filter>
<filter id="filter3_d_243_1" x="158.733" y="315.98" width="86.1653" height="110.196" filterUnits="userSpaceOnUse" color-interpolation-filters="sRGB">
<feFlood flood-opacity="0" result="BackgroundImageFix"/>
<feColorMatrix in="SourceAlpha" type="matrix" values="0 0 0 0 0 0 0 0 0 0 0 0 0 0 0 0 0 0 127 0" result="hardAlpha"/>
<feOffset dx="4" dy="4"/>
<feGaussianBlur stdDeviation="2"/>
<feComposite in2="hardAlpha" operator="out"/>
<feColorMatrix type="matrix" values="0 0 0 0 0 0 0 0 0 0 0 0 0 0 0 0 0 0 0.25 0"/>
<feBlend mode="normal" in2="BackgroundImageFix" result="effect1_dropShadow_243_1"/>
<feBlend mode="normal" in="SourceGraphic" in2="effect1_dropShadow_243_1" result="shape"/>
</filter>
</defs>
</svg>
