<svg width="195" height="329" viewBox="0 0 195 329" fill="none" xmlns="http://www.w3.org/2000/svg">
<g filter="url(#filter0_d_243_1)">
<path d="M52.8912 16.1152C54.0293 19.9028 53.3736 23.9829 50.9241 28.3554C49.3635 30.8273 47.0656 34.5816 44.0305 39.6184C41.5572 43.6981 40.6778 47.0975 41.3925 49.8166C41.471 50.0923 42.3597 51.2251 44.0585 53.2149C44.8806 54.2184 45.5074 55.3733 45.939 56.6795C46.6218 58.868 46.6823 60.4408 46.1205 61.3979C45.6135 62.3379 44.2464 63.1873 42.0192 63.9461C40.8157 64.3237 38.8958 63.7547 36.2594 62.2392C33.0597 60.4199 30.9888 57.856 30.0467 54.5475C28.7905 50.1362 29.5663 45.1175 32.374 39.4913C34.433 35.4214 37.5215 29.3166 41.6396 21.177C41.0586 19.1367 39.0485 18.3558 35.6092 18.8341C34.3429 18.9912 31.9241 19.5999 28.3526 20.6603C21.9912 22.5961 17.5966 25.056 15.1688 28.0402C13.9745 29.4961 12.5567 30.4815 10.9156 30.9964C9.60268 31.4083 8.13276 31.2688 6.50582 30.5779C4.91789 29.8147 3.90815 28.7799 3.4766 27.4737C3.89702 26.0203 4.22399 24.8666 4.4575 24.0124C7.49007 16.874 14.5588 11.5628 25.6638 8.07879C31.5171 6.24238 36.8014 5.75583 41.5166 6.61913C47.5376 7.67344 51.3291 10.8388 52.8912 16.1152ZM50.8987 75.6666C51.5187 77.6345 51.1383 79.8562 49.7575 82.3317C48.3767 84.8072 47.065 86.2699 45.8226 86.7198C45.0724 87.0152 43.5318 86.6276 41.2008 85.5569C38.5335 84.3514 36.9643 82.9216 36.4933 81.2673C36.9532 80.1619 37.6081 78.695 38.4581 76.8666C39.9868 73.8642 41.4349 72.1484 42.8025 71.7194C44.3342 71.2388 45.9293 71.3991 47.5876 72.2003C49.3007 72.9844 50.4044 74.1398 50.8987 75.6666Z" fill="black"/>
</g>
<g filter="url(#filter1_d_243_1)">
<path d="M182.747 105.798C181.824 109.646 179.226 112.756 174.953 115.127C172.388 116.37 168.554 118.298 163.45 120.912C159.303 123.02 156.855 125.428 156.105 128.134C156.034 128.412 156.225 129.865 156.678 132.493C156.877 133.799 156.834 135.127 156.549 136.475C156.037 138.713 155.302 140.084 154.345 140.589C153.443 141.11 151.854 141.079 149.577 140.498C148.363 140.157 147.011 138.616 145.522 135.875C143.705 132.565 143.222 129.244 144.072 125.911C145.207 121.467 148.376 117.625 153.581 114.385C157.37 112.057 163.053 108.564 170.63 103.908C171.155 101.852 169.832 100.081 166.662 98.5944C165.505 98.0307 163.14 97.2166 159.566 96.152C153.178 94.2958 148.204 93.9685 144.644 95.1702C142.898 95.751 141.198 95.8086 139.542 95.3429C138.217 94.9703 137.035 94.0423 135.994 92.5587C135.022 91.035 134.679 89.5989 134.964 88.2501C136.049 87.2453 136.904 86.4439 137.53 85.8459C143.682 81.4435 152.36 80.8179 163.564 83.969C169.469 85.63 174.215 88.1258 177.801 91.4566C182.405 95.6688 184.054 100.449 182.747 105.798ZM151.285 155.358C150.83 157.373 149.395 159.054 146.981 160.399C144.567 161.745 142.719 162.267 141.435 161.965C140.648 161.803 139.529 160.625 138.078 158.431C136.408 155.937 135.785 153.856 136.211 152.19C137.155 151.503 138.446 150.616 140.084 149.528C142.888 147.816 144.979 147.154 146.359 147.542C147.904 147.977 149.183 148.991 150.196 150.586C151.264 152.196 151.627 153.787 151.285 155.358Z" fill="black"/>
</g>
<g filter="url(#filter2_d_243_1)">
<path d="M67.7475 189.798C66.8242 193.646 64.2261 196.756 59.9534 199.127C57.3881 200.37 53.5537 202.298 48.45 204.912C44.3033 207.02 41.8549 209.428 41.1049 212.134C41.034 212.412 41.225 213.865 41.6781 216.493C41.877 217.799 41.8339 219.127 41.5488 220.475C41.0367 222.713 40.3022 224.084 39.3451 224.589C38.4433 225.11 36.8538 225.079 34.5768 224.498C33.3626 224.157 32.0109 222.616 30.5219 219.875C28.7048 216.565 28.2216 213.244 29.0725 209.911C30.2069 205.467 33.3764 201.625 38.5809 198.385C42.3696 196.057 48.0526 192.564 55.63 187.908C56.1547 185.852 54.8322 184.081 51.6625 182.594C50.505 182.031 48.1396 181.217 44.5663 180.152C38.1782 178.296 33.204 177.969 29.6438 179.17C27.8983 179.751 26.1977 179.809 24.542 179.343C23.2174 178.97 22.0346 178.042 20.9936 176.559C20.022 175.035 19.6787 173.599 19.9639 172.25C21.0485 171.245 21.9038 170.444 22.5297 169.846C28.6817 165.443 37.3596 164.818 48.5636 167.969C54.4691 169.63 59.2151 172.126 62.8014 175.457C67.4049 179.669 69.0536 184.449 67.7475 189.798ZM36.285 239.358C35.8296 241.373 34.395 243.054 31.9812 244.399C29.5673 245.745 27.7186 246.267 26.435 245.965C25.6481 245.803 24.5291 244.625 23.078 242.431C21.4077 239.937 20.7852 237.856 21.2107 236.19C22.1551 235.503 23.4463 234.616 25.0844 233.528C27.8877 231.816 29.9792 231.154 31.359 231.542C32.9044 231.977 34.1834 232.991 35.196 234.586C36.2639 236.196 36.6268 237.787 36.285 239.358Z" fill="black"/>
</g>
<g filter="url(#filter3_d_243_1)">
<path d="M161.656 243.192C162.69 247.01 161.921 251.066 159.35 255.362C157.721 257.785 155.319 261.467 152.144 266.409C149.557 270.411 148.583 273.781 149.223 276.519C149.294 276.796 150.152 277.954 151.796 279.993C152.59 281.019 153.185 282.192 153.581 283.51C154.203 285.716 154.22 287.289 153.632 288.229C153.099 289.153 151.708 289.961 149.459 290.653C148.245 290.994 146.34 290.369 143.745 288.777C140.595 286.864 138.595 284.241 137.744 280.908C136.609 276.464 137.524 271.473 140.488 265.936C142.66 261.931 145.918 255.924 150.262 247.915C149.737 245.86 147.748 245.02 144.295 245.396C143.024 245.515 140.588 246.051 136.986 247.005C130.57 248.75 126.106 251.077 123.595 253.986C122.36 255.405 120.915 256.348 119.259 256.813C117.935 257.186 116.468 257.003 114.86 256.264C113.293 255.455 112.311 254.391 111.916 253.073C112.377 251.634 112.735 250.491 112.993 249.645C116.223 242.603 123.441 237.507 134.645 234.356C140.55 232.695 145.849 232.366 150.542 233.368C156.535 234.6 160.24 237.874 161.656 243.192ZM158.017 302.625C158.583 304.609 158.141 306.817 156.691 309.249C155.241 311.681 153.889 313.104 152.634 313.516C151.875 313.789 150.345 313.356 148.043 312.217C145.409 310.934 143.878 309.459 143.453 307.793C143.944 306.702 144.639 305.256 145.54 303.455C147.152 300.5 148.648 298.829 150.028 298.441C151.573 298.007 153.164 298.214 154.801 299.064C156.493 299.898 157.565 301.085 158.017 302.625Z" fill="black"/>
</g>
<defs>
<filter id="filter0_d_243_1" x="0.226318" y="0.870483" width="78.647" height="101.269" filterUnits="userSpaceOnUse" color-interpolation-filters="sRGB">
<feFlood flood-opacity="0" result="BackgroundImageFix"/>
<feColorMatrix in="SourceAlpha" type="matrix" values="0 0 0 0 0 0 0 0 0 0 0 0 0 0 0 0 0 0 127 0" result="hardAlpha"/>
<feOffset dx="4" dy="4"/>
<feGaussianBlur stdDeviation="2"/>
<feComposite in2="hardAlpha" operator="out"/>
<feColorMatrix type="matrix" values="0 0 0 0 0 0 0 0 0 0 0 0 0 0 0 0 0 0 0.25 0"/>
<feBlend mode="normal" in2="BackgroundImageFix" result="effect1_dropShadow_243_1"/>
<feBlend mode="normal" in="SourceGraphic" in2="effect1_dropShadow_243_1" result="shape"/>
</filter>
<filter id="filter1_d_243_1" x="117.819" y="76.7509" width="76.925" height="100.399" filterUnits="userSpaceOnUse" color-interpolation-filters="sRGB">
<feFlood flood-opacity="0" result="BackgroundImageFix"/>
<feColorMatrix in="SourceAlpha" type="matrix" values="0 0 0 0 0 0 0 0 0 0 0 0 0 0 0 0 0 0 127 0" result="hardAlpha"/>
<feOffset dx="4" dy="4"/>
<feGaussianBlur stdDeviation="2"/>
<feComposite in2="hardAlpha" operator="out"/>
<feColorMatrix type="matrix" values="0 0 0 0 0 0 0 0 0 0 0 0 0 0 0 0 0 0 0.25 0"/>
<feBlend mode="normal" in2="BackgroundImageFix" result="effect1_dropShadow_243_1"/>
<feBlend mode="normal" in="SourceGraphic" in2="effect1_dropShadow_243_1" result="shape"/>
</filter>
<filter id="filter2_d_243_1" x="2.81909" y="160.751" width="76.925" height="100.399" filterUnits="userSpaceOnUse" color-interpolation-filters="sRGB">
<feFlood flood-opacity="0" result="BackgroundImageFix"/>
<feColorMatrix in="SourceAlpha" type="matrix" values="0 0 0 0 0 0 0 0 0 0 0 0 0 0 0 0 0 0 127 0" result="hardAlpha"/>
<feOffset dx="4" dy="4"/>
<feGaussianBlur stdDeviation="2"/>
<feComposite in2="hardAlpha" operator="out"/>
<feColorMatrix type="matrix" values="0 0 0 0 0 0 0 0 0 0 0 0 0 0 0 0 0 0 0.25 0"/>
<feBlend mode="normal" in2="BackgroundImageFix" result="effect1_dropShadow_243_1"/>
<feBlend mode="normal" in="SourceGraphic" in2="effect1_dropShadow_243_1" result="shape"/>
</filter>
<filter id="filter3_d_243_1" x="108.98" y="227.836" width="76.9252" height="100.399" filterUnits="userSpaceOnUse" color-interpolation-filters="sRGB">
<feFlood flood-opacity="0" result="BackgroundImageFix"/>
<feColorMatrix in="SourceAlpha" type="matrix" values="0 0 0 0 0 0 0 0 0 0 0 0 0 0 0 0 0 0 127 0" result="hardAlpha"/>
<feOffset dx="4" dy="4"/>
<feGaussianBlur stdDeviation="2"/>
<feComposite in2="hardAlpha" operator="out"/>
<feColorMatrix type="matrix" values="0 0 0 0 0 0 0 0 0 0 0 0 0 0 0 0 0 0 0.25 0"/>
<feBlend mode="normal" in2="BackgroundImageFix" result="effect1_dropShadow_243_1"/>
<feBlend mode="normal" in="SourceGraphic" in2="effect1_dropShadow_243_1" result="shape"/>
</filter>
</defs>
</svg>